<mxfile host="65bd71144e">
    <diagram id="ZyR4noJ782jSzHW8K-OS" name="第 1 页">
        <mxGraphModel dx="604" dy="894" grid="1" gridSize="10" guides="1" tooltips="1" connect="1" arrows="1" fold="1" page="1" pageScale="1" pageWidth="827" pageHeight="1169" math="0" shadow="0">
            <root>
                <mxCell id="0"/>
                <mxCell id="1" parent="0"/>
                <mxCell id="qS6rU9e2sYp7SmdRsgVX-3" style="edgeStyle=orthogonalEdgeStyle;rounded=0;orthogonalLoop=1;jettySize=auto;html=1;exitX=0.5;exitY=1;exitDx=0;exitDy=0;entryX=0.5;entryY=0;entryDx=0;entryDy=0;" parent="1" source="qS6rU9e2sYp7SmdRsgVX-1" target="qS6rU9e2sYp7SmdRsgVX-2" edge="1">
                    <mxGeometry relative="1" as="geometry"/>
                </mxCell>
                <mxCell id="qS6rU9e2sYp7SmdRsgVX-1" value="啟動" style="ellipse;whiteSpace=wrap;html=1;aspect=fixed;" parent="1" vertex="1">
                    <mxGeometry x="370" y="70" width="80" height="80" as="geometry"/>
                </mxCell>
                <mxCell id="qS6rU9e2sYp7SmdRsgVX-5" style="edgeStyle=orthogonalEdgeStyle;rounded=0;orthogonalLoop=1;jettySize=auto;html=1;exitX=0.5;exitY=1;exitDx=0;exitDy=0;" parent="1" source="qS6rU9e2sYp7SmdRsgVX-2" target="qS6rU9e2sYp7SmdRsgVX-4" edge="1">
                    <mxGeometry relative="1" as="geometry"/>
                </mxCell>
                <mxCell id="qS6rU9e2sYp7SmdRsgVX-2" value="設定起始向量並貼右牆" style="rounded=0;whiteSpace=wrap;html=1;" parent="1" vertex="1">
                    <mxGeometry x="350" y="200" width="120" height="60" as="geometry"/>
                </mxCell>
                <mxCell id="8zS23Hjn6VlcP0hwMMiN-3" style="edgeStyle=orthogonalEdgeStyle;rounded=0;orthogonalLoop=1;jettySize=auto;html=1;exitX=0.25;exitY=1;exitDx=0;exitDy=0;entryX=0.5;entryY=0;entryDx=0;entryDy=0;" parent="1" source="qS6rU9e2sYp7SmdRsgVX-4" target="8zS23Hjn6VlcP0hwMMiN-1" edge="1">
                    <mxGeometry relative="1" as="geometry"/>
                </mxCell>
                <mxCell id="8zS23Hjn6VlcP0hwMMiN-4" style="edgeStyle=orthogonalEdgeStyle;rounded=0;orthogonalLoop=1;jettySize=auto;html=1;exitX=0.75;exitY=1;exitDx=0;exitDy=0;entryX=0.5;entryY=0;entryDx=0;entryDy=0;" parent="1" source="qS6rU9e2sYp7SmdRsgVX-4" target="8zS23Hjn6VlcP0hwMMiN-2" edge="1">
                    <mxGeometry relative="1" as="geometry"/>
                </mxCell>
                <mxCell id="qS6rU9e2sYp7SmdRsgVX-4" value="分析前方5個點，取出最優先的牆，計算行走命令(轉向或是前進)" style="rounded=0;whiteSpace=wrap;html=1;" parent="1" vertex="1">
                    <mxGeometry x="350" y="320" width="120" height="60" as="geometry"/>
                </mxCell>
                <mxCell id="8zS23Hjn6VlcP0hwMMiN-6" style="edgeStyle=orthogonalEdgeStyle;rounded=0;orthogonalLoop=1;jettySize=auto;html=1;exitX=0.5;exitY=1;exitDx=0;exitDy=0;entryX=0;entryY=0;entryDx=0;entryDy=0;" parent="1" source="8zS23Hjn6VlcP0hwMMiN-1" target="8zS23Hjn6VlcP0hwMMiN-5" edge="1">
                    <mxGeometry relative="1" as="geometry"/>
                </mxCell>
                <mxCell id="8zS23Hjn6VlcP0hwMMiN-1" value="轉向，注意轉向完右牆也要標記走過" style="rounded=0;whiteSpace=wrap;html=1;" parent="1" vertex="1">
                    <mxGeometry x="240" y="440" width="120" height="60" as="geometry"/>
                </mxCell>
                <mxCell id="8zS23Hjn6VlcP0hwMMiN-7" style="edgeStyle=orthogonalEdgeStyle;rounded=0;orthogonalLoop=1;jettySize=auto;html=1;exitX=0.5;exitY=1;exitDx=0;exitDy=0;entryX=1;entryY=0;entryDx=0;entryDy=0;" parent="1" source="8zS23Hjn6VlcP0hwMMiN-2" target="8zS23Hjn6VlcP0hwMMiN-5" edge="1">
                    <mxGeometry relative="1" as="geometry"/>
                </mxCell>
                <mxCell id="8zS23Hjn6VlcP0hwMMiN-2" value="直走，標記右牆" style="rounded=0;whiteSpace=wrap;html=1;" parent="1" vertex="1">
                    <mxGeometry x="480" y="440" width="120" height="60" as="geometry"/>
                </mxCell>
                <mxCell id="8zS23Hjn6VlcP0hwMMiN-8" style="edgeStyle=orthogonalEdgeStyle;rounded=0;orthogonalLoop=1;jettySize=auto;html=1;exitX=1;exitY=0.5;exitDx=0;exitDy=0;entryX=1;entryY=0.5;entryDx=0;entryDy=0;" parent="1" source="8zS23Hjn6VlcP0hwMMiN-5" target="qS6rU9e2sYp7SmdRsgVX-4" edge="1">
                    <mxGeometry relative="1" as="geometry">
                        <Array as="points">
                            <mxPoint x="670" y="610"/>
                            <mxPoint x="670" y="350"/>
                        </Array>
                    </mxGeometry>
                </mxCell>
                <mxCell id="8zS23Hjn6VlcP0hwMMiN-12" style="edgeStyle=orthogonalEdgeStyle;rounded=0;orthogonalLoop=1;jettySize=auto;html=1;exitX=0.5;exitY=1;exitDx=0;exitDy=0;entryX=0.5;entryY=0;entryDx=0;entryDy=0;" parent="1" source="8zS23Hjn6VlcP0hwMMiN-5" target="8zS23Hjn6VlcP0hwMMiN-10" edge="1">
                    <mxGeometry relative="1" as="geometry"/>
                </mxCell>
                <mxCell id="8zS23Hjn6VlcP0hwMMiN-5" value="終點?" style="rhombus;whiteSpace=wrap;html=1;" parent="1" vertex="1">
                    <mxGeometry x="374" y="570" width="80" height="80" as="geometry"/>
                </mxCell>
                <mxCell id="8zS23Hjn6VlcP0hwMMiN-9" value="否" style="text;html=1;strokeColor=none;fillColor=none;align=center;verticalAlign=middle;whiteSpace=wrap;rounded=0;" parent="1" vertex="1">
                    <mxGeometry x="450" y="610" width="60" height="30" as="geometry"/>
                </mxCell>
                <mxCell id="8zS23Hjn6VlcP0hwMMiN-10" value="結束" style="rounded=0;whiteSpace=wrap;html=1;" parent="1" vertex="1">
                    <mxGeometry x="354" y="700" width="120" height="60" as="geometry"/>
                </mxCell>
                <mxCell id="8zS23Hjn6VlcP0hwMMiN-15" value="是" style="text;html=1;strokeColor=none;fillColor=none;align=center;verticalAlign=middle;whiteSpace=wrap;rounded=0;" parent="1" vertex="1">
                    <mxGeometry x="414" y="650" width="60" height="30" as="geometry"/>
                </mxCell>
            </root>
        </mxGraphModel>
    </diagram>
</mxfile>